<?xml version="1.0" encoding="UTF-8"?> <svg xmlns="http://www.w3.org/2000/svg" xmlns:xlink="http://www.w3.org/1999/xlink" version="1.1" id="Layer_1" x="0px" y="0px" viewBox="0 0 1366 416" style="enable-background:new 0 0 1366 416;" xml:space="preserve"> <style type="text/css"> .st0{fill:#FFFFFF;} </style> <path class="st0" d="M420.8,83.4c69.3,0,120.7,51.1,120.7,120.4s-50.7,121-120.7,121c-69.6,0-120.3-51.7-120.3-121 S352.2,83.4,420.8,83.4z M420.8,286.3c46.4,0,78.9-34.8,78.9-82.6s-32.2-82.6-78.9-82.6c-46.1,0-78.9,34.8-78.9,82.6 S374.8,286.3,420.8,286.3z M934,83.4c69.3,0,120.7,51.1,120.7,120.4s-50.7,121-120.7,121c-69.6,0-120.4-51.7-120.4-121 S865.4,83.4,934,83.4z M934,286.3c46.4,0,78.9-34.8,78.9-82.6s-32.2-82.6-78.9-82.6c-46.1,0-78.9,34.8-78.9,82.6 S888,286.3,934,286.3z M747,87.7h47.8l-119.7,245l-119.4-245h47.5l71.9,163.1L747,87.7z M1144.1,151.4c0-17.7,14.7-31.8,50.9-31.8 c20.4,0,43.5,6,64.6,18.4V96.7c-18.8-8.6-41.9-13.3-64.2-13.3c-64.3,0-94.4,32.1-94.4,70c0,87.1,139.3,53.9,139.3,104.5 c0,17.4-15.4,30.5-51.9,30.5c-28.8,0-58.6-10.7-77.3-25.8l0,0.1v43.8c20.4,11,48.9,18,77.4,18c64.3,0,94.7-32.1,94.7-69.6 C1283,168.8,1144.1,201.2,1144.1,151.4z M126.2,151.3c0-17.8,14.7-31.8,50.9-31.8c20.3,0,43.3,6,64.3,18.2V96.5 c-18.8-8.5-41.7-13.2-63.9-13.2c-64.3,0-94.4,32.1-94.4,70c0,87.1,139.3,53.9,139.3,104.5c0,17.4-15.4,30.5-51.9,30.5 c-28.8,0-58.6-10.7-77.4-25.8l0,0.1v43.8c20.4,11,48.9,18,77.4,18c64.3,0,94.8-32.2,94.8-69.7C265.2,168.7,126.2,201.2,126.2,151.3z "></path> </svg> 